# xmcd
#
# Track frame offsets:
# 150
# 17377
# 30226
# 42562
# 56710
# 67390
# 84689
# 96070
# 110912
# 123262
# 134525
# 152203
# 165917
# 183702
# 199627
# 216725
# 227995
# 239741
# 256548
# 270435
# 284878
# 296648
# 309494
# 322444
#
# Disc length: 4503 seconds
#
#
# Revision: 0
# Processed by: cddbd v1.5.2PL0 Copyright (c) Steve Scherf et al.
# Submitted via: FreeRIP 2.945 
#
DISCID=7b119518
DTITLE=Cooper-JF1826 - Last-Mohicans09
DYEAR=1826
DGENRE=Native American
TTITLE0=LM 0901
TTITLE1=LM 0902
TTITLE2=LM 0903
TTITLE3=LM 0904
TTITLE4=LM 0905
TTITLE5=LM 0906
TTITLE6=LM 0907
TTITLE7=LM 0908
TTITLE8=LM 0909
TTITLE9=LM 0910
TTITLE10=LM 0911
TTITLE11=LM 0912
TTITLE12=LM 0913
TTITLE13=LM 0914
TTITLE14=LM 0915
TTITLE15=LM 0916
TTITLE16=LM 0917
TTITLE17=LM 0918
TTITLE18=LM 0919
TTITLE19=LM 0920
TTITLE20=LM 0921
TTITLE21=LM 0922
TTITLE22=LM 0923
TTITLE23=LM 0924
EXTD=The Last of the Mohicans Tantor Media\nby James Finimore Cooper 12 CDs\nread by William Costello native country
EXTT0=
EXTT1=
EXTT2=
EXTT3=
EXTT4=
EXTT5=
EXTT6=
EXTT7=
EXTT8=
EXTT9=
EXTT10=
EXTT11=
EXTT12=
EXTT13=
EXTT14=
EXTT15=
EXTT16=
EXTT17=
EXTT18=
EXTT19=
EXTT20=
EXTT21=
EXTT22=
EXTT23=
PLAYORDER=
